<?xml version="1.0" encoding="utf-8"?>
<!-- Generator: Adobe Illustrator 16.0.4, SVG Export Plug-In . SVG Version: 6.00 Build 0)  -->
<!DOCTYPE svg PUBLIC "-//W3C//DTD SVG 1.1//EN" "http://www.w3.org/Graphics/SVG/1.1/DTD/svg11.dtd">
<svg version="1.1" id="Layer_1" xmlns="http://www.w3.org/2000/svg" xmlns:xlink="http://www.w3.org/1999/xlink" x="0px" y="0px"
	 width="792px" height="612px" viewBox="0 0 792 612" enable-background="new 0 0 792 612" xml:space="preserve">
<g>
	<path d="M171.728,282.972c-1,0-1.85,0.3-2.548,0.899c-1.7-6.396-3.098-15.738-4.197-28.029c-1.101-12.291-2.45-21.584-4.047-27.879
		c-2.799-0.199-8.22-1.274-16.263-3.223c-8.045-1.949-13.815-2.923-17.312-2.923c-2.499,2.799-1.494,2.443-10.986,16.93
		c-2.799,4.197-6.675,10.184-10.722,13.53c-4.047,3.349-7.71,8.484-13.491,9.319c-11.324,1.635-33.172-3.512-33.27-3.512
		l-30.195-6.15c-1-0.6-6.499-3.297-6.499-4.099c0-0.798,12.131,0.061,19.802,1.828s39.583,9.428,47.5,8.21
		c4.046-0.623,8.391-5.568,12.266-8.318s6.114-7.46,10.112-12.458c6.494-7.993,5.539-8.036,11.136-18.129
		c-0.4-0.099-1.349-0.724-2.848-1.874c-1.499-1.147-2.424-1.897-2.773-2.248c-0.352-0.349-1.424-1.373-3.223-3.073
		c-1.799-1.698-3.398-3.246-4.796-4.646c-3.799-3.597-5.897-6.295-6.295-8.094c0-1.297,0.424-2.099,1.274-2.398
		c0.848-0.3,1.773-0.45,2.773-0.45h1.798c3.096,0,7.593,0.951,13.49,2.848c5.895,1.899,10.342,2.848,13.34,2.848
		c2.398-2.897,5.869-10.017,10.417-21.359c4.545-11.34,7.918-18.511,10.117-21.509c2.398-4.295,4.047-6.445,4.946-6.445
		c0.499,0,0.75,0.7,0.75,2.098v1.649l3.447,62.653h1.499c6.295-2.998,10.241-4.497,11.841-4.497c1.597,0,2.398,0.401,2.398,1.199
		c0,1.199-1.6,2.825-4.796,4.872c-3.199,2.049-6.347,3.372-9.443,3.972c-0.101,1-0.15,3.223-0.15,6.67
		c0,3.448,0.848,12.216,2.548,26.305c1.698,14.089,2.572,21.858,2.623,23.308C172.001,282.246,171.926,282.972,171.728,282.972z
		 M114.471,200.534c-0.6-0.098-1.15-0.149-1.649-0.149c-1.499,0-2.248,0.501-2.248,1.499c0,2.199,2.271,4.946,6.82,8.244
		c4.546,3.298,7.869,4.946,9.967,4.946c0.499,0,0.949-0.098,1.349-0.3c0.6-0.698,1.199-1.897,1.799-3.597
		c0.599-1.698,1.398-3.347,2.398-4.946C132.106,205.832,125.96,203.932,114.471,200.534z M131.408,217.621
		c2.698,0.7,6.445,1.4,11.242,2.098c4.796,0.7,7.843,1.251,9.143,1.649c-3.799-5.295-8.745-9.391-14.839-12.291
		c-0.101,0.201-0.6,0.951-1.499,2.248C133.556,213.724,132.207,215.822,131.408,217.621z M140.701,204.731l19.335,15.738
		c0.099-1.998,0.15-5.07,0.15-9.218c0-4.146-0.201-11.366-0.6-21.659c-0.4-10.291-0.899-18.235-1.499-23.832L140.701,204.731z"/>
	<path d="M178.472,256.591c1.998-6.595,4.171-11.89,6.52-15.888c2.347-3.996,5.171-6.869,8.469-8.619
		c3.297-1.747,6.295-2.848,8.993-3.297c2.698-0.45,6.445-0.674,11.241-0.674c0.3-1.199,0.799-3.572,1.499-7.12
		c0.698-3.546,1.223-5.944,1.574-7.195c0.349-1.248,0.874-3.171,1.574-5.771c1.199-4.295,2.422-7.569,3.672-9.818
		c1.249-2.248,2.023-3.672,2.323-4.271s0.524-1.023,0.674-1.274c0.15-0.249,0.375-0.525,0.675-0.825
		c0.398-0.398,1.049-0.6,1.948-0.6c3.096,0,4.646,3.298,4.646,9.893v1.349c0,5.197-2.199,12.366-6.595,21.509
		c-4.398,9.143-6.595,16.113-6.595,20.909c0,10.693,2.897,16.038,8.693,16.038c1.897,0,4.497-0.75,7.794-2.249
		c3.297-1.499,5.895-2.248,7.794-2.248l1.499,0.149c-1.7,2.6-4.223,4.647-7.569,6.146c-3.349,1.499-6.096,2.249-8.244,2.249
		c-2.15,0-3.623-0.049-4.422-0.15c-0.801-0.099-1.55-0.323-2.248-0.675c-0.701-0.349-1.274-0.623-1.724-0.824
		c-0.45-0.199-0.951-0.674-1.499-1.424c-0.55-0.75-0.951-1.274-1.199-1.574c-0.25-0.3-0.625-0.998-1.124-2.099
		c-0.501-1.098-0.825-1.798-0.975-2.098s-0.501-1.148-1.049-2.548c-0.551-1.398-0.925-2.297-1.125-2.698
		c-0.3,0.3-1.45,1.524-3.447,3.672c-2,2.15-3.398,3.598-4.197,4.347c-0.801,0.749-2.173,1.974-4.122,3.672
		c-1.948,1.7-3.574,2.899-4.871,3.597c-3.698,2-6.97,2.998-9.817,2.998c-2.848,0-4.897-0.675-6.146-2.023
		c-1.25-1.349-2-2.796-2.249-4.347C178.596,261.264,178.472,259.191,178.472,256.591z M190.538,241.453
		c-4.447,5.197-6.67,10.417-6.67,15.663s1.398,7.869,4.197,7.869c3.897,0,8.918-2.972,15.063-8.918
		c6.146-5.944,9.218-11.017,9.218-15.213c0-2.497-0.525-4.321-1.574-5.471c-1.049-1.148-2.772-1.724-5.171-1.724
		C200.004,233.659,194.983,236.258,190.538,241.453z M227.935,198.436c-2.6,3.597-4.721,8.419-6.37,14.464
		c-1.648,6.047-2.473,11.118-2.473,15.214c0,0.201,0.049,0.651,0.15,1.349l1.349-1.349c1.199-1.199,3.646-8.293,7.344-21.284
		l0.15-1.798c0-1.199,0-1.949,0-2.249s-0.025-1.049-0.075-2.249C227.958,199.335,227.935,198.637,227.935,198.436z"/>
	<path d="M207.7,306.804c0-3.998,1.225-8.045,3.672-12.141c2.45-4.098,5.421-7.696,8.918-10.792
		c3.499-3.099,6.996-5.946,10.492-8.544c3.499-2.599,6.471-4.822,8.918-6.67c2.447-1.848,3.672-3.122,3.672-3.822v-15.438
		c0.499-7.993,1.747-11.991,3.748-11.991c1.297,0,2.047,1.049,2.248,3.147c0.099,0.501,0.099,1,0,1.499l-0.3,20.084
		c0.398-0.398,6.094-5.145,17.087-14.239c1.598-0.798,2.672-0.998,3.223-0.6c0.548,0.401,0.825,0.801,0.825,1.199
		c0,2.398-6.595,8.345-19.785,17.836l-1.349,1.349c-0.201,0-0.476,1.923-0.824,5.771c-0.352,3.846-0.576,6.169-0.675,6.97
		c-0.801,14.989-1.948,25.83-3.447,32.526c-3.398,14.289-9.042,21.434-16.937,21.434c-6.094,0-10.867-2.975-14.314-8.918
		C209.424,319.518,207.7,313.299,207.7,306.804z M210.698,308.152c0,4.197,1.499,8.893,4.497,14.09
		c2.998,5.193,6.497,7.793,10.492,7.793c3.998,0,7.246-1.924,9.743-5.77c2.499-3.848,4.297-8.619,5.396-14.314
		c1.897-9.993,2.848-18.637,2.848-25.93c0-0.6-0.051-2.825-0.15-6.67c-0.101-3.848-0.15-6.171-0.15-6.97
		c-6.895,3.695-13.838,8.693-20.834,14.988C214.646,292.464,210.698,300.059,210.698,308.152z"/>
	<path d="M296.883,231.261c-1.3,6.595-1.948,12.092-1.948,16.487c0,4.398,0.323,7.621,0.974,9.668
		c0.648,2.049,1.747,3.623,3.297,4.721c1.548,1.101,2.897,1.7,4.047,1.799c1.148,0.101,2.572,0.101,4.272,0
		c7.194-3.497,11.516-5.246,12.965-5.246c1.447,0,2.173,0.25,2.173,0.75c0,0.7-1.45,1.899-4.347,3.597
		c-2.899,1.7-6.497,2.949-10.792,3.747c-10.993,0-16.488-4.995-16.488-14.988c0-1.099,0.049-2.249,0.15-3.448
		c-0.6,1.101-1.424,2.773-2.473,5.021c-1.049,2.248-1.874,3.972-2.473,5.171c-0.599,1.199-1.499,2.623-2.698,4.272
		c-1.199,1.648-2.398,2.874-3.597,3.672c-3.298,2.099-7.146,3.148-11.542,3.148c-1.899-0.202-3.447-0.651-4.646-1.349
		c-2-1.098-2.998-3.447-2.998-7.044c0-6.394,4.047-17.036,12.141-31.926c0.6,1.199,0.899,2.525,0.899,3.972
		c0,1.45-0.476,3.447-1.424,5.996c-0.951,2.548-2.45,6.07-4.497,10.567c-2.049,4.497-3.223,8.494-3.522,11.991
		c0,2.099,0.698,3.249,2.099,3.448c0.499,0,1.499,0,2.998,0c3.696,0,7.469-2.223,11.316-6.67c3.846-4.445,6.869-9.293,9.068-14.539
		c2.197-5.246,3.297-9.417,3.297-12.516l1.649-1.799C296.183,229.762,296.883,230.263,296.883,231.261z"/>
	<path d="M317.417,256.591c1.998-6.595,4.171-11.89,6.52-15.888c2.347-3.996,5.171-6.869,8.469-8.619
		c3.297-1.747,6.295-2.848,8.993-3.297c2.698-0.45,6.445-0.674,11.241-0.674c0.3-1.199,0.799-3.572,1.499-7.12
		c0.698-3.546,1.223-5.944,1.574-7.195c0.349-1.248,0.874-3.171,1.574-5.771c1.199-4.295,2.422-7.569,3.672-9.818
		c1.249-2.248,2.023-3.672,2.323-4.271s0.524-1.023,0.674-1.274c0.15-0.249,0.375-0.525,0.675-0.825
		c0.398-0.398,1.049-0.6,1.948-0.6c3.096,0,4.646,3.298,4.646,9.893v1.349c0,5.197-2.199,12.366-6.595,21.509
		c-4.398,9.143-6.595,16.113-6.595,20.909c0,10.693,2.897,16.038,8.693,16.038c1.897,0,4.497-0.75,7.794-2.249
		c3.297-1.499,5.895-2.248,7.794-2.248l1.499,0.149c-1.7,2.6-4.223,4.647-7.569,6.146c-3.349,1.499-6.096,2.249-8.244,2.249
		c-2.15,0-3.623-0.049-4.422-0.15c-0.801-0.099-1.55-0.323-2.248-0.675c-0.701-0.349-1.274-0.623-1.724-0.824
		c-0.45-0.199-0.951-0.674-1.499-1.424c-0.55-0.75-0.951-1.274-1.199-1.574c-0.25-0.3-0.625-0.998-1.124-2.099
		c-0.501-1.098-0.825-1.798-0.975-2.098s-0.501-1.148-1.049-2.548c-0.551-1.398-0.925-2.297-1.125-2.698
		c-0.3,0.3-1.45,1.524-3.447,3.672c-2,2.15-3.398,3.598-4.197,4.347c-0.801,0.749-2.173,1.974-4.122,3.672
		c-1.948,1.7-3.574,2.899-4.871,3.597c-3.698,2-6.97,2.998-9.817,2.998c-2.848,0-4.897-0.675-6.146-2.023
		c-1.25-1.349-2-2.796-2.249-4.347C317.542,261.264,317.417,259.191,317.417,256.591z M329.483,241.453
		c-4.447,5.197-6.67,10.417-6.67,15.663s1.398,7.869,4.197,7.869c3.897,0,8.918-2.972,15.063-8.918
		c6.146-5.944,9.218-11.017,9.218-15.213c0-2.497-0.525-4.321-1.574-5.471c-1.049-1.148-2.772-1.724-5.171-1.724
		C338.95,233.659,333.928,236.258,329.483,241.453z M366.88,198.436c-2.6,3.597-4.721,8.419-6.37,14.464
		c-1.648,6.047-2.473,11.118-2.473,15.214c0,0.201,0.049,0.651,0.15,1.349l1.349-1.349c1.199-1.199,3.646-8.293,7.344-21.284
		l0.15-1.798c0-1.199,0-1.949,0-2.249s-0.025-1.049-0.075-2.249C366.903,199.335,366.88,198.637,366.88,198.436z"/>
	<path d="M381.269,236.207l0.599-1.949c1.998-6.394,3.696-9.593,5.096-9.593c1.998,0,2.998,0.75,2.998,2.249
		c0,0.3-0.052,0.6-0.15,0.899c-3.799,9.293-5.696,18.136-5.696,26.53c0,3.799,0.949,6.97,2.848,9.518
		c1.897,2.548,4.796,3.822,8.694,3.822c9.792-3.796,15.937-5.696,18.436-5.696c0.799,0,1.199,0.202,1.199,0.6
		c0,1.199-2.6,2.923-7.794,5.171c-5.197,2.248-9.27,3.372-12.216,3.372c-2.949,0-5.171-0.225-6.67-0.674s-2.6-0.876-3.297-1.274
		c-0.7-0.4-1.55-1.274-2.548-2.623c-1-1.349-1.648-3.147-1.948-5.396c-0.3-2.248-0.45-5.471-0.45-9.667
		C380.37,247.298,380.669,242.203,381.269,236.207z"/>
	<path d="M424.735,263.037c3.396,0,6.896-0.499,10.492-1.499c3.598-0.998,8.094-2.398,13.49-4.197
		c5.396-1.798,8.993-2.698,10.792-2.698s2.697,0.501,2.697,1.499c0,0.501-0.101,1.049-0.3,1.648
		c-15.189,6.895-27.03,10.342-35.522,10.342c-4.797,0-8.521-1.098-11.167-3.297c-2.648-2.197-3.972-4.771-3.972-7.719
		c0-2.946,0.548-5.92,1.648-8.918c2.497-6.693,6.544-11.841,12.141-15.438c3.298-2.197,6.345-3.298,9.144-3.298
		c4.895,0,8.993,2.848,12.291,8.543v0.45l-2.698,2.698c-2.099-4.497-4.998-6.745-8.693-6.745c-1.3,0-2.648,0.3-4.047,0.899
		c-4.897,1.7-8.896,5.447-11.991,11.242c-2.099,3.897-3.147,7.794-3.147,11.691C416.891,261.439,419.839,263.037,424.735,263.037z"
		/>
	<path d="M498.03,230.211c-2.898,7.396-4.347,14.291-4.347,20.685c0,10.593,5.745,15.888,17.237,15.888
		c2.897-0.398,5.07-0.998,6.521-1.798c1.447-0.799,3.021-2.173,4.721-4.122c1.698-1.948,3.347-3.571,4.946-4.871h0.75
		c-0.501,5.597-2.424,9.368-5.771,11.316c-3.35,1.948-7.921,2.923-13.715,2.923c-12.492,0-19.237-5.246-20.234-15.738
		c-0.502,2.6-2.773,5.621-6.82,9.068c-4.047,3.447-7.67,5.171-10.867,5.171c-0.201,0-0.449,0-0.749,0
		c-6.197-1.698-9.293-5.396-9.293-11.092c0-7.394,3.846-14.588,11.541-21.583c5.996-5.494,11.842-8.244,17.537-8.244
		C492.684,227.813,495.532,228.614,498.03,230.211z M465.056,256.891c0,1.6,0.075,2.874,0.225,3.822
		c0.15,0.951,0.649,1.824,1.499,2.623c0.848,0.801,2.072,1.199,3.672,1.199c4.396-0.199,8.818-3.722,13.266-10.567
		c4.445-6.843,6.819-12.715,7.119-17.612c-1.6-1.998-3.799-2.998-6.595-2.998c-3.598,0-7.345,2.3-11.241,6.895
		C469.103,244.851,466.454,250.397,465.056,256.891z"/>
	<path d="M523.062,236.507l-1.799,0.45c-0.3,0.3-1.147,0.55-2.548,0.75c-1.398,0.201-2.747,0.201-4.047,0
		c-1.297-0.199-1.896-0.698-1.799-1.499c-0.199-2.897,1.649-4.197,5.546-3.897c4.097,0.3,6.494-0.998,7.194-3.897l7.045-26.83
		l2.848-2.848c0.998,0.3,1.499,1.199,1.499,2.698l-0.149,1.499l-7.045,28.329v0.75c0.799,0.3,1.998,0.45,3.598,0.45
		c1.597,0,4.444-0.574,8.543-1.724c4.097-1.148,6.445-1.724,7.045-1.724c0,5.497-3.698,8.244-11.092,8.244
		c-2.3,0-4.896-0.249-7.794-0.75c-2.199,4.998-3.298,9.569-3.298,13.714c0,4.148,1.099,7.944,3.298,11.392
		c2.196,3.447,5.595,5.171,10.192,5.171c4.695-0.698,8.318-1.822,10.866-3.372c2.549-1.548,4.422-2.646,5.621-3.298
		c1.199-0.648,2.398-0.974,3.598-0.974s2.496,0.15,3.896,0.45c-2.799,4.998-10.893,8.295-24.281,9.893c-0.3,0-0.551,0-0.75,0
		c-6.895,0-11.541-2.548-13.939-7.645c-1.798-3.695-2.697-7.967-2.697-12.815C522.612,244.177,522.762,240.006,523.062,236.507z"/>
	<path d="M600.253,225.865l0.3,5.696c0,2.098-0.127,3.724-0.375,4.871c-0.25,1.15-0.426,2.023-0.524,2.623
		c-0.101,0.6-0.352,1.375-0.749,2.323c-0.4,0.951-0.651,1.625-0.75,2.023c-0.101,0.401-0.449,1.15-1.049,2.249
		c-0.6,1.101-0.975,1.798-1.124,2.098c-0.15,0.3-0.6,1.125-1.35,2.473c-0.749,1.349-1.225,2.225-1.424,2.623h2.998
		c5.794,0,14.288-2.796,25.48-8.394l1.199,1.349c-9.593,7.696-20.886,11.893-33.874,12.59l-13.19,8.094
		c-1.199,1-3.822,1.499-7.869,1.499s-6.646-1.124-7.794-3.373c-1.149-2.248-1.724-5.771-1.724-10.567s2.023-10.241,6.07-16.337
		c4.047-6.094,8.717-9.144,14.015-9.144c2.398,0,3.946,1,4.646,2.998c-5.598,1.7-10.394,4.646-14.39,8.843
		c-3.997,4.197-5.995,9.045-5.995,14.539c0,1.899,0.099,3.398,0.3,4.497c0.199,1.101,0.749,2.098,1.648,2.998
		s2.646,1.349,5.246,1.349c5.396,0,9.792-2.249,13.19-6.745c-1-1.698-1.499-4.471-1.499-8.318c0-3.846,0.323-7.495,0.975-10.942
		c0.648-3.447,1.972-6.769,3.972-9.967c1.998-3.197,4.496-4.796,7.494-4.796S599.152,223.968,600.253,225.865z M596.355,232.91
		l0.15-1.949c0-1.998-0.6-3.197-1.799-3.597c-2.6,1.499-4.698,4.197-6.295,8.094c-1.6,3.897-2.398,7.494-2.398,10.792
		c0,3.297,0.499,5.047,1.499,5.246c2.796-1.598,4.97-4.197,6.52-7.794c1.549-3.597,2.323-7.094,2.323-10.492V232.91z"/>
	<path d="M653.763,236.807c-3.878,0.31-4.871,0.375-9.218,1.124s-7.472,1.424-9.368,2.023c-2.499,12.492-6.846,20.785-13.04,24.881
		c-1.799,1.199-3.174,1.798-4.122,1.798c-0.951,0-1.648-0.225-2.099-0.674c-0.449-0.45-0.674-0.998-0.674-1.649
		c0-0.648,0.449-1.522,1.349-2.623c3.096,0.202,5.396-1.297,6.895-4.497c1.499-2.998,2.722-6.22,3.673-9.667
		c0.948-3.447,1.724-5.97,2.323-7.569c-4.698-1.897-7.045-4.295-7.045-7.194c0-5.295,2.297-8.893,6.895-10.792
		c1.598-0.6,3.197-0.899,4.797-0.899c1.597,0,3.072,0.55,4.421,1.649c1.35,1.101,2.023,2.648,2.023,4.646c0,2-1.3,4.747-3.896,8.244
		c0.3,0,2.099-0.398,5.396-1.199c9.092-2.398,13.713-3.786,16.487-3.597s1.774,8.188,1.774,8.188S657.641,236.497,653.763,236.807z
		 M632.778,225.115c-1.899,0-3.499,2.049-4.796,6.146c0,1.799,1.447,3.248,4.347,4.347c2.098-2.099,3.147-4.146,3.147-6.146
		c0-0.798-0.225-1.724-0.675-2.773C634.353,225.64,633.678,225.115,632.778,225.115z"/>
</g>
<g>
	<path d="M333.428,296.236c0,8.611-4.814,14.051-14.441,16.319l2.936,1.175c6.105,2.427,10.135,5.635,12.093,9.627
		c1.486,3.053,2.23,6.223,2.23,9.51c0,7.438-2.682,13.208-8.042,17.317c-5.362,4.109-12.856,6.164-22.483,6.164
		c-3.053,0-6.263-0.117-9.627-0.353l-8.336-0.587c-2.192-0.155-4.579-0.234-7.162-0.234c-1.879,0-4.62,0.196-8.219,0.587
		c-3.601,0.391-6.184,0.587-7.749,0.587h-0.939c-2.506,0-4.52-0.781-6.046-2.348c-1.526-1.565-2.29-3.64-2.29-6.223
		c0-2.19,0.605-4.03,1.82-5.519c1.212-1.485,2.719-2.23,4.52-2.23c0.705,0,1.662,0.138,2.876,0.411
		c1.213,0.274,2.132,0.41,2.759,0.41c2.113,0,3.17-2.659,3.17-7.983v-32.521c0-5.242-1.057-7.866-3.17-7.866
		c-0.627,0-1.546,0.138-2.759,0.411c-1.214,0.275-2.172,0.411-2.876,0.411c-1.801,0-3.308-0.743-4.52-2.23
		c-1.214-1.486-1.82-3.326-1.82-5.518c0-2.583,0.763-4.676,2.29-6.281c1.526-1.604,3.541-2.407,6.046-2.407c0.156,0,0.312,0,0.47,0
		c0.235,0.079,0.391,0.118,0.47,0.118l8.335,0.822c2.348,0.235,5.478,0.352,9.393,0.352c3.053,0,5.478-0.077,7.279-0.235
		l7.984-0.704c1.799-0.156,4.421-0.235,7.866-0.235c5.166,0,9.822,0.548,13.971,1.644c4.148,1.097,7.514,3.269,10.097,6.516
		C332.137,288.391,333.428,292.089,333.428,296.236z M290.692,304.103c0,1.566,0.312,2.545,0.939,2.936
		c0.391,0.313,1.369,0.47,2.935,0.47h3.64c4.069,0,7.297-0.743,9.686-2.231c2.387-1.485,3.581-3.481,3.581-5.987
		c0-5.243-4.071-7.866-12.21-7.866c-2.976,0-5.01,0.235-6.105,0.705c-1.644,0.783-2.466,2.465-2.466,5.048V304.103z
		 M314.291,332.046c0-3.209-1.449-5.792-4.344-7.749c-2.897-1.956-6.732-2.936-11.506-2.936h-3.522
		c-1.722,0-2.858,0.255-3.405,0.764c-0.548,0.51-0.822,1.468-0.822,2.876v8.571c0,2.976,0.86,5.029,2.583,6.163
		c1.721,1.136,4.852,1.703,9.393,1.703c3.443,0,6.241-0.86,8.395-2.583C313.214,337.135,314.291,334.863,314.291,332.046z"/>
	<path d="M360.782,340.851c1.565,0,2.542-1.016,2.935-3.052c0.156-0.782,0.235-2.426,0.235-4.932v-32.521
		c0-2.504-0.079-4.109-0.235-4.813c-0.393-2.035-1.37-3.053-2.935-3.053c-0.627,0-1.546,0.138-2.759,0.411
		c-1.214,0.275-2.172,0.411-2.876,0.411c-1.801,0-3.308-0.743-4.52-2.23c-1.214-1.486-1.82-3.326-1.82-5.518
		c0-2.66,0.763-4.755,2.29-6.281c1.526-1.526,3.581-2.29,6.164-2.29c1.174,0,3.913,0.235,8.219,0.705
		c2.895,0.313,5.712,0.469,8.453,0.469c2.19,0,5.342-0.194,9.451-0.587c4.109-0.391,6.828-0.587,8.16-0.587
		c5.712,0,8.571,2.858,8.571,8.571c0,2.192-0.607,4.032-1.819,5.518c-1.215,1.488-2.721,2.23-4.521,2.23
		c-0.627,0-1.566-0.136-2.818-0.411c-1.253-0.273-2.192-0.411-2.818-0.411c-2.113,0-3.17,2.624-3.17,7.866v32.521
		c0,5.324,1.057,7.983,3.17,7.983c0.626,0,1.565-0.136,2.818-0.41c1.251-0.273,2.19-0.411,2.818-0.411c1.8,0,3.306,0.745,4.521,2.23
		c1.212,1.488,1.819,3.328,1.819,5.519c0,2.506-0.763,4.578-2.289,6.223c-1.526,1.644-3.464,2.465-5.812,2.465
		c-0.47,0-0.822-0.04-1.057-0.117l-7.396-0.939c-1.878-0.234-3.953-0.352-6.223-0.352c-3.522,0-7.202,0.196-11.036,0.587
		c-4.619,0.47-7.631,0.704-9.041,0.704c-2.506,0-4.54-0.781-6.105-2.348c-1.566-1.565-2.348-3.64-2.348-6.223
		c0-2.27,0.605-4.128,1.82-5.577c1.212-1.447,2.759-2.172,4.638-2.172c0.625,0,1.544,0.138,2.759,0.411
		C359.236,340.715,360.155,340.851,360.782,340.851z"/>
	<path d="M457.055,284.848l20.663,50.25v-34.752c0-5.242-1.018-7.866-3.053-7.866c-0.548,0-1.35,0.138-2.406,0.411
		c-1.057,0.275-1.86,0.411-2.407,0.411c-1.644,0-3.034-0.743-4.168-2.23c-1.136-1.486-1.702-3.326-1.702-5.518
		c0-2.583,0.743-4.656,2.23-6.223c1.486-1.565,3.443-2.348,5.87-2.348c1.251,0,3.405,0.196,6.458,0.587
		c3.052,0.393,5.753,0.587,8.101,0.587c2.113,0,4.579-0.156,7.396-0.469c4.227-0.47,6.849-0.705,7.866-0.705
		c2.504,0,4.539,0.783,6.105,2.348c1.564,1.566,2.348,3.64,2.348,6.223c0,2.192-0.627,4.032-1.878,5.518
		c-1.253,1.488-2.779,2.23-4.579,2.23c-0.704,0-1.644-0.136-2.817-0.411c-1.174-0.273-2.075-0.411-2.7-0.411
		c-1.567,0-2.583,0.979-3.053,2.935c-0.158,0.784-0.235,2.428-0.235,4.932v47.784c0,5.166-2.113,7.749-6.34,7.749
		c-0.783,0-1.978-0.059-3.581-0.176c-1.604-0.117-2.799-0.176-3.581-0.176c-0.078,0-1.995,0.078-5.752,0.234h-2.583
		c-2.271,0-3.954-0.547-5.049-1.644c-0.628-0.626-1.526-2.308-2.7-5.049l-22.66-51.659v35.457c0,5.324,1.017,7.983,3.053,7.983
		c0.547,0,1.389-0.136,2.524-0.41c1.134-0.273,1.976-0.411,2.524-0.411c1.644,0,3.032,0.745,4.168,2.23
		c1.134,1.488,1.702,3.328,1.702,5.519c0,5.714-2.74,8.57-8.219,8.57c-1.566,0-4.149-0.234-7.748-0.704
		c-2.428-0.312-4.854-0.47-7.279-0.47c-2.036,0-4.775,0.196-8.219,0.587c-3.445,0.391-5.636,0.587-6.575,0.587
		c-5.714,0-8.57-2.856-8.57-8.57c0-2.19,0.605-4.03,1.82-5.519c1.212-1.485,2.718-2.23,4.52-2.23c0.705,0,1.662,0.138,2.877,0.411
		c1.212,0.274,2.131,0.41,2.759,0.41c2.113,0,3.17-2.659,3.17-7.983v-32.521c0-5.242-1.057-7.866-3.17-7.866
		c-0.628,0-1.547,0.138-2.759,0.411c-1.215,0.275-2.172,0.411-2.877,0.411c-1.802,0-3.308-0.743-4.52-2.23
		c-1.215-1.486-1.82-3.326-1.82-5.518c0-2.583,0.781-4.656,2.349-6.223c1.564-1.565,3.599-2.348,6.104-2.348
		c1.644,0,4.03,0.196,7.162,0.587c3.13,0.393,5.595,0.587,7.396,0.587c1.486,0,4.03-0.156,7.632-0.469
		c1.644-0.077,3.521-0.235,5.635-0.47c0.939-0.156,1.956-0.235,3.053-0.235c2.113,0,3.757,0.822,4.932,2.465
		C454.941,280.075,455.802,281.875,457.055,284.848z"/>
	<path d="M552.153,275.338c8.219,0,15.066,2.779,20.546,8.335c0.704-4.617,3.053-6.927,7.045-6.927c4.852,0,7.278,2.348,7.278,7.044
		c0,0.783-0.157,2.348-0.469,4.696c-0.47,3.522-0.705,5.911-0.705,7.162c0,1.409,0.077,2.466,0.235,3.17
		c0.155,2.506,0.234,3.915,0.234,4.227c0,2.036-0.9,3.739-2.7,5.107c-1.802,1.37-4.109,2.055-6.927,2.055
		c-4.541,0-7.279-2.23-8.219-6.692c-0.939-4.461-2.289-7.532-4.051-9.216c-1.761-1.682-4.561-2.524-8.395-2.524
		c-5.089,0-9.021,2.369-11.799,7.103c-2.779,4.737-4.168,11.447-4.168,20.136c0,7.357,1.35,13.091,4.05,17.2
		c2.701,4.108,6.438,6.163,11.213,6.163c3.053,0,5.577-0.88,7.572-2.642c1.996-1.761,2.994-3.972,2.994-6.633
		c0-3.288-1.37-4.932-4.109-4.932c-0.157,0-0.393,0-0.704,0c-0.313,0.079-0.587,0.117-0.822,0.117
		c-1.253,0.158-1.957,0.235-2.113,0.235c-1.566,0-2.896-0.685-3.991-2.055c-1.098-1.368-1.645-3.071-1.645-5.107
		c0-2.348,0.782-4.227,2.349-5.636c1.564-1.408,3.6-2.113,6.105-2.113c1.644,0,4.127,0.217,7.455,0.646
		c3.326,0.431,5.85,0.646,7.572,0.646c2.583,0,5.439-0.194,8.571-0.587c2.504-0.312,4.227-0.47,5.166-0.47
		c2.504,0,4.52,0.763,6.046,2.289s2.29,3.581,2.29,6.164c0,2.271-0.549,4.168-1.645,5.694c-1.097,1.526-2.465,2.289-4.108,2.289
		l-2.818-0.234c-2.113,0-3.17,1.761-3.17,5.283c0,1.487,0.039,3.053,0.117,4.696l0.235,5.049c0.077,1.722,0.117,3.366,0.117,4.931
		c0,5.245-2.896,7.866-8.688,7.866c-5.479,0-8.218-1.919-8.218-5.753v-0.704c-5.401,4.306-11.547,6.457-18.434,6.457
		c-6.027,0-11.702-1.585-17.023-4.755c-5.323-3.17-9.198-7.298-11.623-12.387c-3.132-6.496-4.696-14.048-4.696-22.659
		c0-13.149,3.053-23.559,9.157-31.23C533.368,279.174,541.664,275.338,552.153,275.338z"/>
	<path d="M644.669,357.875c-11.898,0-21.095-3.6-27.591-10.802c-6.497-7.2-9.744-17.414-9.744-30.643
		c0-12.757,3.229-22.795,9.686-30.115c6.458-7.317,15.36-10.977,26.71-10.977c11.896,0,21.172,3.562,27.826,10.684
		c6.651,7.124,9.979,17.065,9.979,29.822c0,13.229-3.229,23.54-9.687,30.937S656.331,357.875,644.669,357.875z M644.552,291.775
		c-10.176,0-15.263,8.297-15.263,24.89c0,7.907,0.978,13.777,2.935,17.611c2.426,4.775,6.496,7.162,12.211,7.162
		c10.097,0,15.146-8.062,15.146-24.187c0-8.923-1.194-15.398-3.581-19.431C653.61,293.791,649.795,291.775,644.552,291.775z"/>
</g>
<path d="M683.298,321.684c11.016-0.2,17.997-0.498,19.234-0.895c2.497-0.799,54.921-1.297,57.27-1.498
	c2.347-0.199,3.522,0.4,3.522,1.799c-3.024,2.017-49.616,3.437-80.415,4.259L683.298,321.684z"/>
<path d="M656.738,326.186c-2.799,0-4.972-0.674-6.52-2.023c-1.551-1.35-2.323-2.822-2.323-4.422c0-1.598,0.098-2.945,0.3-4.047
	c0-0.813,0.814-18.482,0.814-20.338s4.349,1.293,4.349,1.293c-0.48,9.912-0.816,20.805-0.816,21.893
	c0.098,2.301,1.848,3.447,5.246,3.447C658.007,321.988,657.137,326.186,656.738,326.186z"/>
<path d="M649.869,272.684c0.652-11.951,1.326-12.785,1.75-14.583c0.216-0.917,0.93-3.171,1.433-6.25l4.333-4
	c0,3.1-0.096,2.582-1.194,8.826c-0.472,2.672-1.896,15.008-1.896,16.749S649.869,272.684,649.869,272.684z"/>
<path d="M248.334,229.1c0,0.859-1.584,2.351-2.351,2.351c-1.299,0-2.351-1.052-2.351-2.351c0-1.298,1.052-2.351,2.351-2.351
	C247.282,226.75,248.334,227.802,248.334,229.1z"/>
<path d="M389.959,215.975c0,0.859-1.584,2.351-2.351,2.351c-1.299,0-2.351-1.052-2.351-2.351c0-1.298,1.052-2.351,2.351-2.351
	C388.906,213.625,389.959,214.677,389.959,215.975z"/>
</svg>
